<mxfile host="app.diagrams.net" modified="2021-01-06T14:51:40.798Z" agent="5.0 (Windows NT 10.0; Win64; x64) AppleWebKit/537.36 (KHTML, like Gecko) Chrome/87.0.4280.88 Safari/537.36" etag="QmpNVFTN5p8mrr-feC2D" version="14.1.8" type="github" pages="5">
  <diagram id="TTNcYHfPbYXm6bVmQe8x" name="Page-1">
    <mxGraphModel dx="1038" dy="560" grid="1" gridSize="10" guides="1" tooltips="1" connect="1" arrows="1" fold="1" page="1" pageScale="1" pageWidth="850" pageHeight="1100" math="0" shadow="0">
      <root>
        <mxCell id="0" />
        <mxCell id="1" parent="0" />
        <mxCell id="ndiM-wTkEPf3GxRF71mV-32" value="&lt;font style=&quot;font-size: 15px&quot;&gt;DRM&lt;/font&gt;" style="rounded=1;whiteSpace=wrap;html=1;shadow=0;glass=0;labelBackgroundColor=#ffffff;sketch=0;fontSize=10;align=right;dashed=1;spacingLeft=0;spacingRight=7;" parent="1" vertex="1">
          <mxGeometry x="260" y="530" width="400" height="160" as="geometry" />
        </mxCell>
        <mxCell id="ndiM-wTkEPf3GxRF71mV-12" value="" style="edgeStyle=orthogonalEdgeStyle;rounded=0;orthogonalLoop=1;jettySize=auto;html=1;dashed=1;dashPattern=1 1;" parent="1" source="ndiM-wTkEPf3GxRF71mV-1" target="ndiM-wTkEPf3GxRF71mV-2" edge="1">
          <mxGeometry relative="1" as="geometry" />
        </mxCell>
        <mxCell id="ndiM-wTkEPf3GxRF71mV-1" value="OMXClient" style="rounded=1;whiteSpace=wrap;html=1;" parent="1" vertex="1">
          <mxGeometry x="280" y="240" width="120" height="60" as="geometry" />
        </mxCell>
        <mxCell id="ndiM-wTkEPf3GxRF71mV-13" style="edgeStyle=orthogonalEdgeStyle;rounded=0;orthogonalLoop=1;jettySize=auto;html=1;entryX=0;entryY=0.5;entryDx=0;entryDy=0;" parent="1" source="ndiM-wTkEPf3GxRF71mV-2" target="ndiM-wTkEPf3GxRF71mV-3" edge="1">
          <mxGeometry relative="1" as="geometry" />
        </mxCell>
        <mxCell id="ndiM-wTkEPf3GxRF71mV-2" value="OMXMaster" style="rounded=1;whiteSpace=wrap;html=1;fillColor=#b1ddf0;strokeColor=#10739e;" parent="1" vertex="1">
          <mxGeometry x="280" y="340" width="120" height="60" as="geometry" />
        </mxCell>
        <mxCell id="ndiM-wTkEPf3GxRF71mV-3" value="libstagefrighthw.so" style="rounded=1;whiteSpace=wrap;html=1;fillColor=#b1ddf0;strokeColor=#10739e;" parent="1" vertex="1">
          <mxGeometry x="550" y="340" width="120" height="60" as="geometry" />
        </mxCell>
        <mxCell id="ndiM-wTkEPf3GxRF71mV-4" value="HAL" style="rounded=0;whiteSpace=wrap;html=1;fillColor=#b1ddf0;strokeColor=#10739e;" parent="1" vertex="1">
          <mxGeometry x="690" y="30" width="90" height="20" as="geometry" />
        </mxCell>
        <mxCell id="ndiM-wTkEPf3GxRF71mV-8" value="" style="edgeStyle=orthogonalEdgeStyle;rounded=0;orthogonalLoop=1;jettySize=auto;html=1;" parent="1" source="ndiM-wTkEPf3GxRF71mV-5" target="ndiM-wTkEPf3GxRF71mV-6" edge="1">
          <mxGeometry relative="1" as="geometry" />
        </mxCell>
        <mxCell id="ndiM-wTkEPf3GxRF71mV-5" value="Stagefright player" style="rounded=1;whiteSpace=wrap;html=1;" parent="1" vertex="1">
          <mxGeometry x="280" y="30" width="120" height="60" as="geometry" />
        </mxCell>
        <mxCell id="ndiM-wTkEPf3GxRF71mV-9" value="" style="edgeStyle=orthogonalEdgeStyle;rounded=0;orthogonalLoop=1;jettySize=auto;html=1;" parent="1" source="ndiM-wTkEPf3GxRF71mV-6" target="ndiM-wTkEPf3GxRF71mV-7" edge="1">
          <mxGeometry relative="1" as="geometry" />
        </mxCell>
        <mxCell id="ndiM-wTkEPf3GxRF71mV-11" value="" style="edgeStyle=orthogonalEdgeStyle;rounded=0;orthogonalLoop=1;jettySize=auto;html=1;" parent="1" source="ndiM-wTkEPf3GxRF71mV-6" target="ndiM-wTkEPf3GxRF71mV-1" edge="1">
          <mxGeometry relative="1" as="geometry" />
        </mxCell>
        <mxCell id="ndiM-wTkEPf3GxRF71mV-6" value="Awesome player" style="rounded=1;whiteSpace=wrap;html=1;" parent="1" vertex="1">
          <mxGeometry x="280" y="130" width="120" height="60" as="geometry" />
        </mxCell>
        <mxCell id="ndiM-wTkEPf3GxRF71mV-7" value="media.extractor" style="rounded=1;whiteSpace=wrap;html=1;" parent="1" vertex="1">
          <mxGeometry x="110" y="140" width="120" height="40" as="geometry" />
        </mxCell>
        <mxCell id="ndiM-wTkEPf3GxRF71mV-14" value="makeComponentInstance" style="text;html=1;strokeColor=none;fillColor=none;align=center;verticalAlign=middle;whiteSpace=wrap;rounded=0;" parent="1" vertex="1">
          <mxGeometry x="400" y="410" width="40" height="20" as="geometry" />
        </mxCell>
        <mxCell id="ndiM-wTkEPf3GxRF71mV-16" value="hwbinder" style="text;html=1;strokeColor=none;fillColor=none;align=center;verticalAlign=middle;whiteSpace=wrap;rounded=0;" parent="1" vertex="1">
          <mxGeometry x="350" y="310" width="40" height="20" as="geometry" />
        </mxCell>
        <mxCell id="ndiM-wTkEPf3GxRF71mV-17" value="media.codec" style="rounded=1;whiteSpace=wrap;html=1;imageVerticalAlign=top;glass=0;shadow=0;sketch=0;verticalAlign=middle;" parent="1" vertex="1">
          <mxGeometry x="110" y="190" width="120" height="40" as="geometry" />
        </mxCell>
        <mxCell id="ndiM-wTkEPf3GxRF71mV-20" style="edgeStyle=orthogonalEdgeStyle;rounded=0;orthogonalLoop=1;jettySize=auto;html=1;exitX=0.5;exitY=1;exitDx=0;exitDy=0;dashed=1;dashPattern=1 1;fontSize=10;" parent="1" edge="1">
          <mxGeometry relative="1" as="geometry">
            <mxPoint x="545" y="130" as="sourcePoint" />
            <mxPoint x="545" y="130" as="targetPoint" />
          </mxGeometry>
        </mxCell>
        <mxCell id="ndiM-wTkEPf3GxRF71mV-24" value="mediaserver" style="rounded=1;whiteSpace=wrap;html=1;imageVerticalAlign=top;glass=0;shadow=0;sketch=0;verticalAlign=middle;" parent="1" vertex="1">
          <mxGeometry x="500" y="90" width="120" height="40" as="geometry" />
        </mxCell>
        <mxCell id="ndiM-wTkEPf3GxRF71mV-25" value="mediadrmserver" style="rounded=1;whiteSpace=wrap;html=1;imageVerticalAlign=top;glass=0;shadow=0;sketch=0;verticalAlign=middle;" parent="1" vertex="1">
          <mxGeometry x="500" y="140" width="120" height="40" as="geometry" />
        </mxCell>
        <mxCell id="ndiM-wTkEPf3GxRF71mV-26" value="media.metrics" style="rounded=1;whiteSpace=wrap;html=1;imageVerticalAlign=top;glass=0;shadow=0;sketch=0;verticalAlign=middle;" parent="1" vertex="1">
          <mxGeometry x="500" y="190" width="120" height="40" as="geometry" />
        </mxCell>
        <mxCell id="ndiM-wTkEPf3GxRF71mV-27" value="android.hardware.cas@1.1-service" style="rounded=1;whiteSpace=wrap;html=1;fillColor=#b1ddf0;strokeColor=#10739e;align=center;" parent="1" vertex="1">
          <mxGeometry x="280" y="480" width="270" height="40" as="geometry" />
        </mxCell>
        <mxCell id="ndiM-wTkEPf3GxRF71mV-29" value="android.hardware.drm@1.1-service.playready" style="rounded=1;whiteSpace=wrap;html=1;fillColor=#b1ddf0;strokeColor=#10739e;" parent="1" vertex="1">
          <mxGeometry x="280" y="540" width="270" height="40" as="geometry" />
        </mxCell>
        <mxCell id="ndiM-wTkEPf3GxRF71mV-30" value="android.hardware.drm@1.2-service-lazy.clearkey" style="rounded=1;whiteSpace=wrap;html=1;fillColor=#b1ddf0;strokeColor=#10739e;" parent="1" vertex="1">
          <mxGeometry x="280" y="590" width="270" height="40" as="geometry" />
        </mxCell>
        <mxCell id="ndiM-wTkEPf3GxRF71mV-31" value="android.hardware.drm@1.2-service-lazy.widevine" style="rounded=1;whiteSpace=wrap;html=1;fillColor=#b1ddf0;strokeColor=#10739e;" parent="1" vertex="1">
          <mxGeometry x="280" y="640" width="270" height="40" as="geometry" />
        </mxCell>
      </root>
    </mxGraphModel>
  </diagram>
  <diagram id="uDEa86_ecWG2xQhuk83C" name="Page-2">
    <mxGraphModel dx="1038" dy="617" grid="1" gridSize="10" guides="1" tooltips="1" connect="1" arrows="1" fold="1" page="1" pageScale="1" pageWidth="850" pageHeight="1100" math="0" shadow="0">
      <root>
        <mxCell id="-zaJsY25zVCRwGOHU-gi-0" />
        <mxCell id="-zaJsY25zVCRwGOHU-gi-1" parent="-zaJsY25zVCRwGOHU-gi-0" />
        <mxCell id="-zaJsY25zVCRwGOHU-gi-5" value="MediaPlayerApp" style="rounded=0;whiteSpace=wrap;html=1;shadow=0;glass=0;labelBackgroundColor=#ffffff;sketch=0;fontSize=10;align=center;strokeColor=#666666;fillColor=#f5f5f5;gradientColor=#b3b3b3;" parent="-zaJsY25zVCRwGOHU-gi-1" vertex="1">
          <mxGeometry x="130" y="33" width="490" height="50" as="geometry" />
        </mxCell>
        <mxCell id="-zaJsY25zVCRwGOHU-gi-30" style="edgeStyle=orthogonalEdgeStyle;curved=1;rounded=0;orthogonalLoop=1;jettySize=auto;html=1;exitX=0.5;exitY=1;exitDx=0;exitDy=0;fontSize=13;shape=flexArrow;" parent="-zaJsY25zVCRwGOHU-gi-1" source="-zaJsY25zVCRwGOHU-gi-6" edge="1">
          <mxGeometry relative="1" as="geometry">
            <mxPoint x="210" y="190" as="targetPoint" />
          </mxGeometry>
        </mxCell>
        <mxCell id="-zaJsY25zVCRwGOHU-gi-6" value="MediaCodec" style="rounded=0;whiteSpace=wrap;html=1;shadow=0;glass=0;labelBackgroundColor=#ffffff;sketch=0;fontSize=10;align=center;strokeColor=#666666;fillColor=#f5f5f5;gradientColor=#b3b3b3;" parent="-zaJsY25zVCRwGOHU-gi-1" vertex="1">
          <mxGeometry x="130" y="83" width="160" height="50" as="geometry" />
        </mxCell>
        <mxCell id="-zaJsY25zVCRwGOHU-gi-31" style="edgeStyle=orthogonalEdgeStyle;shape=flexArrow;curved=1;rounded=0;orthogonalLoop=1;jettySize=auto;html=1;exitX=1;exitY=1;exitDx=0;exitDy=0;entryX=0.333;entryY=0;entryDx=0;entryDy=0;entryPerimeter=0;fontSize=13;" parent="-zaJsY25zVCRwGOHU-gi-1" source="-zaJsY25zVCRwGOHU-gi-7" target="-zaJsY25zVCRwGOHU-gi-10" edge="1">
          <mxGeometry relative="1" as="geometry" />
        </mxCell>
        <mxCell id="-zaJsY25zVCRwGOHU-gi-7" value="MediaCrypto" style="rounded=0;whiteSpace=wrap;html=1;shadow=0;glass=0;labelBackgroundColor=#ffffff;sketch=0;fontSize=10;align=center;strokeColor=#666666;fillColor=#f5f5f5;gradientColor=#b3b3b3;" parent="-zaJsY25zVCRwGOHU-gi-1" vertex="1">
          <mxGeometry x="290" y="83" width="170" height="50" as="geometry" />
        </mxCell>
        <mxCell id="-zaJsY25zVCRwGOHU-gi-8" value="MediaDrm" style="rounded=0;whiteSpace=wrap;html=1;shadow=0;glass=0;labelBackgroundColor=#ffffff;sketch=0;fontSize=10;align=center;strokeColor=#666666;fillColor=#f5f5f5;gradientColor=#b3b3b3;" parent="-zaJsY25zVCRwGOHU-gi-1" vertex="1">
          <mxGeometry x="460" y="83" width="160" height="50" as="geometry" />
        </mxCell>
        <mxCell id="-zaJsY25zVCRwGOHU-gi-10" value="MediaDrmServer" style="rounded=0;whiteSpace=wrap;html=1;shadow=0;glass=0;labelBackgroundColor=#ffffff;sketch=0;fontSize=13;align=center;verticalAlign=top;" parent="-zaJsY25zVCRwGOHU-gi-1" vertex="1">
          <mxGeometry x="380" y="190" width="240" height="190" as="geometry" />
        </mxCell>
        <mxCell id="-zaJsY25zVCRwGOHU-gi-11" value="MediaFramework" style="rounded=0;whiteSpace=wrap;html=1;shadow=0;glass=0;labelBackgroundColor=#ffffff;sketch=0;fontSize=10;align=center;gradientColor=#7ea6e0;fillColor=#dae8fc;strokeColor=#6c8ebf;" parent="-zaJsY25zVCRwGOHU-gi-1" vertex="1">
          <mxGeometry x="421" y="231" width="160" height="40" as="geometry" />
        </mxCell>
        <mxCell id="-zaJsY25zVCRwGOHU-gi-12" value="DRM Plugin" style="rounded=0;whiteSpace=wrap;html=1;shadow=0;glass=0;labelBackgroundColor=#ffffff;sketch=0;fontSize=10;align=center;gradientColor=#7ea6e0;fillColor=#dae8fc;strokeColor=#6c8ebf;" parent="-zaJsY25zVCRwGOHU-gi-1" vertex="1">
          <mxGeometry x="421" y="271" width="160" height="40" as="geometry" />
        </mxCell>
        <mxCell id="-zaJsY25zVCRwGOHU-gi-26" style="edgeStyle=orthogonalEdgeStyle;curved=1;rounded=0;orthogonalLoop=1;jettySize=auto;html=1;exitX=0.5;exitY=1;exitDx=0;exitDy=0;entryX=0.88;entryY=-0.05;entryDx=0;entryDy=0;entryPerimeter=0;fontSize=13;" parent="-zaJsY25zVCRwGOHU-gi-1" source="-zaJsY25zVCRwGOHU-gi-13" target="-zaJsY25zVCRwGOHU-gi-19" edge="1">
          <mxGeometry relative="1" as="geometry" />
        </mxCell>
        <mxCell id="-zaJsY25zVCRwGOHU-gi-13" value="DRM HAL(e.g. OEMCrypto)" style="rounded=0;whiteSpace=wrap;html=1;shadow=0;glass=0;labelBackgroundColor=#ffffff;sketch=0;fontSize=10;align=center;gradientColor=#7ea6e0;fillColor=#dae8fc;strokeColor=#6c8ebf;" parent="-zaJsY25zVCRwGOHU-gi-1" vertex="1">
          <mxGeometry x="421" y="311" width="160" height="40" as="geometry" />
        </mxCell>
        <mxCell id="-zaJsY25zVCRwGOHU-gi-14" value="MediaServer" style="rounded=0;whiteSpace=wrap;html=1;shadow=0;glass=0;labelBackgroundColor=#ffffff;sketch=0;fontSize=13;align=center;verticalAlign=top;" parent="-zaJsY25zVCRwGOHU-gi-1" vertex="1">
          <mxGeometry x="130" y="191" width="221" height="110" as="geometry" />
        </mxCell>
        <mxCell id="-zaJsY25zVCRwGOHU-gi-29" style="edgeStyle=orthogonalEdgeStyle;curved=1;rounded=0;orthogonalLoop=1;jettySize=auto;html=1;exitX=0.5;exitY=1;exitDx=0;exitDy=0;entryX=0.57;entryY=-0.01;entryDx=0;entryDy=0;entryPerimeter=0;fontSize=13;" parent="-zaJsY25zVCRwGOHU-gi-1" source="-zaJsY25zVCRwGOHU-gi-15" target="-zaJsY25zVCRwGOHU-gi-18" edge="1">
          <mxGeometry relative="1" as="geometry" />
        </mxCell>
        <mxCell id="-zaJsY25zVCRwGOHU-gi-15" value="MediaFramework" style="rounded=0;whiteSpace=wrap;html=1;shadow=0;glass=0;labelBackgroundColor=#ffffff;sketch=0;fontSize=10;align=center;gradientColor=#7ea6e0;fillColor=#dae8fc;strokeColor=#6c8ebf;" parent="-zaJsY25zVCRwGOHU-gi-1" vertex="1">
          <mxGeometry x="160.5" y="231" width="160" height="40" as="geometry" />
        </mxCell>
        <mxCell id="-zaJsY25zVCRwGOHU-gi-25" style="edgeStyle=orthogonalEdgeStyle;curved=1;rounded=0;orthogonalLoop=1;jettySize=auto;html=1;exitX=0.5;exitY=1;exitDx=0;exitDy=0;entryX=0.5;entryY=0;entryDx=0;entryDy=0;fontSize=13;" parent="-zaJsY25zVCRwGOHU-gi-1" source="-zaJsY25zVCRwGOHU-gi-18" target="-zaJsY25zVCRwGOHU-gi-19" edge="1">
          <mxGeometry relative="1" as="geometry" />
        </mxCell>
        <mxCell id="-zaJsY25zVCRwGOHU-gi-18" value="OMX::allocateBuffer" style="rounded=0;whiteSpace=wrap;html=1;shadow=0;glass=0;labelBackgroundColor=#ffffff;sketch=0;fontSize=10;align=center;gradientColor=#7ea6e0;fillColor=#dae8fc;strokeColor=#6c8ebf;" parent="-zaJsY25zVCRwGOHU-gi-1" vertex="1">
          <mxGeometry x="150" y="340" width="160" height="40" as="geometry" />
        </mxCell>
        <mxCell id="-zaJsY25zVCRwGOHU-gi-19" value="SecureBufferHandle" style="rounded=0;whiteSpace=wrap;html=1;shadow=0;glass=0;labelBackgroundColor=#ffffff;sketch=0;fontSize=10;align=center;gradientColor=#7ea6e0;fillColor=#dae8fc;strokeColor=#6c8ebf;" parent="-zaJsY25zVCRwGOHU-gi-1" vertex="1">
          <mxGeometry x="150" y="420" width="160" height="40" as="geometry" />
        </mxCell>
        <mxCell id="-zaJsY25zVCRwGOHU-gi-20" value="SecureBufferHandle" style="rounded=0;whiteSpace=wrap;html=1;shadow=0;glass=0;labelBackgroundColor=#ffffff;sketch=0;fontSize=10;align=center;gradientColor=#7ea6e0;fillColor=#dae8fc;strokeColor=#6c8ebf;" parent="-zaJsY25zVCRwGOHU-gi-1" vertex="1">
          <mxGeometry x="160" y="430" width="160" height="40" as="geometry" />
        </mxCell>
        <mxCell id="-zaJsY25zVCRwGOHU-gi-21" value="TEE" style="rounded=0;whiteSpace=wrap;html=1;shadow=0;glass=0;labelBackgroundColor=#ffffff;sketch=0;fontSize=13;align=left;verticalAlign=middle;spacingLeft=5;gradientColor=#ea6b66;fillColor=#f8cecc;strokeColor=#b85450;" parent="-zaJsY25zVCRwGOHU-gi-1" vertex="1">
          <mxGeometry x="130" y="495" width="490" height="65" as="geometry" />
        </mxCell>
        <mxCell id="-zaJsY25zVCRwGOHU-gi-22" value="TrustedApp: Decrypt to secure buffer" style="rounded=0;whiteSpace=wrap;html=1;shadow=0;glass=0;labelBackgroundColor=#ffffff;sketch=0;fontSize=10;align=center;gradientColor=#97d077;fillColor=#d5e8d4;strokeColor=#82b366;" parent="-zaJsY25zVCRwGOHU-gi-1" vertex="1">
          <mxGeometry x="425" y="510" width="180" height="40" as="geometry" />
        </mxCell>
        <mxCell id="-zaJsY25zVCRwGOHU-gi-27" value="allocate" style="text;html=1;strokeColor=none;fillColor=none;align=center;verticalAlign=middle;whiteSpace=wrap;rounded=0;shadow=0;glass=0;labelBackgroundColor=#ffffff;sketch=0;fontSize=13;" parent="-zaJsY25zVCRwGOHU-gi-1" vertex="1">
          <mxGeometry x="180" y="390" width="40" height="20" as="geometry" />
        </mxCell>
        <mxCell id="-zaJsY25zVCRwGOHU-gi-28" value="access" style="text;html=1;strokeColor=none;fillColor=none;align=center;verticalAlign=middle;whiteSpace=wrap;rounded=0;shadow=0;glass=0;labelBackgroundColor=#ffffff;sketch=0;fontSize=13;" parent="-zaJsY25zVCRwGOHU-gi-1" vertex="1">
          <mxGeometry x="360" y="390" width="40" height="20" as="geometry" />
        </mxCell>
      </root>
    </mxGraphModel>
  </diagram>
  <diagram id="-oNrXLneeOQMfU6swZLK" name="Page-3">
    <mxGraphModel dx="1038" dy="617" grid="1" gridSize="10" guides="1" tooltips="1" connect="1" arrows="1" fold="1" page="1" pageScale="1" pageWidth="850" pageHeight="1100" math="0" shadow="0">
      <root>
        <mxCell id="_B7Xh_4FFcr1jGaWN8-0-0" />
        <mxCell id="_B7Xh_4FFcr1jGaWN8-0-1" parent="_B7Xh_4FFcr1jGaWN8-0-0" />
        <mxCell id="_B7Xh_4FFcr1jGaWN8-0-9" value="Framework" style="shape=module;align=left;spacingLeft=20;align=center;verticalAlign=top;" vertex="1" parent="_B7Xh_4FFcr1jGaWN8-0-1">
          <mxGeometry x="400" y="70" width="260" height="130" as="geometry" />
        </mxCell>
        <mxCell id="_B7Xh_4FFcr1jGaWN8-0-5" value="" style="group" vertex="1" connectable="0" parent="_B7Xh_4FFcr1jGaWN8-0-1">
          <mxGeometry x="30" y="70" width="350" height="210" as="geometry" />
        </mxCell>
        <mxCell id="_B7Xh_4FFcr1jGaWN8-0-3" value="" style="rounded=0;whiteSpace=wrap;html=1;" vertex="1" parent="_B7Xh_4FFcr1jGaWN8-0-5">
          <mxGeometry width="350" height="180" as="geometry" />
        </mxCell>
        <mxCell id="_B7Xh_4FFcr1jGaWN8-0-4" value="&lt;h1&gt;App&lt;/h1&gt;&lt;p&gt;&amp;nbsp; &amp;nbsp;&lt;font face=&quot;Garamond&quot;&gt;vv_display = (&lt;b&gt;VideoView&lt;/b&gt;)findViewById(R.id.vv_display);&lt;/font&gt;&lt;/p&gt;&lt;p&gt;&lt;font face=&quot;Garamond&quot;&gt;&lt;span&gt;&amp;nbsp; &amp;nbsp;&lt;/span&gt;&lt;span&gt;vv_display.setVideopath(&lt;/span&gt;&lt;span&gt;MP4_MEDIAFILE_PATH&lt;/span&gt;&lt;span&gt;);&lt;/span&gt;&lt;/font&gt;&lt;/p&gt;&lt;p&gt;&lt;font face=&quot;Garamond&quot;&gt;&lt;b&gt;&amp;nbsp; &amp;nbsp;MediaController mediaController = new MediaController(this);&lt;/b&gt;&lt;/font&gt;&lt;/p&gt;&lt;p&gt;&lt;font face=&quot;Garamond&quot;&gt;&amp;nbsp; &amp;nbsp;vv_display.setMediaController(mediaController);&lt;/font&gt;&lt;/p&gt;&lt;p&gt;&lt;font face=&quot;Garamond&quot;&gt;&amp;nbsp; &amp;nbsp;mediaController.setAnchorView(vv_display);&lt;/font&gt;&lt;/p&gt;" style="text;html=1;strokeColor=none;fillColor=none;spacing=5;spacingTop=-20;whiteSpace=wrap;overflow=hidden;rounded=0;" vertex="1" parent="_B7Xh_4FFcr1jGaWN8-0-5">
          <mxGeometry width="350" height="190.91" as="geometry" />
        </mxCell>
        <mxCell id="_B7Xh_4FFcr1jGaWN8-0-7" value="MediaPlayer.java" style="rounded=1;whiteSpace=wrap;html=1;" vertex="1" parent="_B7Xh_4FFcr1jGaWN8-0-1">
          <mxGeometry x="490" y="110" width="100" height="30" as="geometry" />
        </mxCell>
        <mxCell id="_B7Xh_4FFcr1jGaWN8-0-6" value="VideoView.java" style="rounded=1;whiteSpace=wrap;html=1;" vertex="1" parent="_B7Xh_4FFcr1jGaWN8-0-1">
          <mxGeometry x="440" y="130" width="90" height="30" as="geometry" />
        </mxCell>
        <mxCell id="_B7Xh_4FFcr1jGaWN8-0-10" value="libmedia_jni.so" style="shape=module;align=left;spacingLeft=20;align=center;verticalAlign=top;" vertex="1" parent="_B7Xh_4FFcr1jGaWN8-0-1">
          <mxGeometry x="480" y="220" width="180" height="50" as="geometry" />
        </mxCell>
        <mxCell id="_B7Xh_4FFcr1jGaWN8-0-11" value="libmedia.so" style="shape=module;align=left;spacingLeft=20;align=center;verticalAlign=top;" vertex="1" parent="_B7Xh_4FFcr1jGaWN8-0-1">
          <mxGeometry x="480" y="290" width="180" height="50" as="geometry" />
        </mxCell>
        <mxCell id="_B7Xh_4FFcr1jGaWN8-0-12" value="libmediaplayerservice.so" style="shape=module;align=left;spacingLeft=20;align=center;verticalAlign=top;" vertex="1" parent="_B7Xh_4FFcr1jGaWN8-0-1">
          <mxGeometry x="480" y="360" width="180" height="50" as="geometry" />
        </mxCell>
        <mxCell id="_B7Xh_4FFcr1jGaWN8-0-13" value="libmediaplayerservice.so" style="shape=module;align=left;spacingLeft=20;align=center;verticalAlign=top;" vertex="1" parent="_B7Xh_4FFcr1jGaWN8-0-1">
          <mxGeometry x="480" y="430" width="180" height="50" as="geometry" />
        </mxCell>
        <mxCell id="PwNGX79ppR_ALCy-mm_b-0" value="libstagefright" style="shape=module;align=left;spacingLeft=20;align=center;verticalAlign=top;" vertex="1" parent="_B7Xh_4FFcr1jGaWN8-0-1">
          <mxGeometry x="480" y="500" width="180" height="50" as="geometry" />
        </mxCell>
        <mxCell id="PwNGX79ppR_ALCy-mm_b-1" value="awesomeplayer" style="shape=module;align=left;spacingLeft=20;align=center;verticalAlign=top;" vertex="1" parent="_B7Xh_4FFcr1jGaWN8-0-1">
          <mxGeometry x="480" y="570" width="180" height="50" as="geometry" />
        </mxCell>
        <mxCell id="PwNGX79ppR_ALCy-mm_b-2" value="OMXCodec" style="shape=module;align=left;spacingLeft=20;align=center;verticalAlign=top;" vertex="1" parent="_B7Xh_4FFcr1jGaWN8-0-1">
          <mxGeometry x="480" y="640" width="180" height="50" as="geometry" />
        </mxCell>
      </root>
    </mxGraphModel>
  </diagram>
  <diagram id="VhRW7yxuGeMV3EfanmtO" name="Page-4">
    <mxGraphModel dx="1038" dy="617" grid="1" gridSize="10" guides="1" tooltips="1" connect="1" arrows="1" fold="1" page="1" pageScale="1" pageWidth="1100" pageHeight="850" math="0" shadow="0">
      <root>
        <mxCell id="OHUF1F6uUoLwLEs6NgrZ-0" />
        <mxCell id="OHUF1F6uUoLwLEs6NgrZ-1" parent="OHUF1F6uUoLwLEs6NgrZ-0" />
        <mxCell id="OHUF1F6uUoLwLEs6NgrZ-2" value="mediaserver" style="shape=umlLifeline;perimeter=lifelinePerimeter;whiteSpace=wrap;html=1;container=1;collapsible=0;recursiveResize=0;outlineConnect=0;fontSize=9;" vertex="1" parent="OHUF1F6uUoLwLEs6NgrZ-1">
          <mxGeometry x="10" y="40" width="60" height="150" as="geometry" />
        </mxCell>
        <mxCell id="OHUF1F6uUoLwLEs6NgrZ-3" value="mediadrmserver" style="shape=umlLifeline;perimeter=lifelinePerimeter;whiteSpace=wrap;html=1;container=1;collapsible=0;recursiveResize=0;outlineConnect=0;fontSize=9;" vertex="1" parent="OHUF1F6uUoLwLEs6NgrZ-1">
          <mxGeometry x="80" y="40" width="70" height="150" as="geometry" />
        </mxCell>
        <mxCell id="OHUF1F6uUoLwLEs6NgrZ-4" value="media.extractor" style="shape=umlLifeline;perimeter=lifelinePerimeter;whiteSpace=wrap;html=1;container=1;collapsible=0;recursiveResize=0;outlineConnect=0;fontSize=9;" vertex="1" parent="OHUF1F6uUoLwLEs6NgrZ-1">
          <mxGeometry x="160" y="40" width="70" height="150" as="geometry" />
        </mxCell>
        <mxCell id="OHUF1F6uUoLwLEs6NgrZ-5" value="media.metrics" style="shape=umlLifeline;perimeter=lifelinePerimeter;whiteSpace=wrap;html=1;container=1;collapsible=0;recursiveResize=0;outlineConnect=0;fontSize=9;" vertex="1" parent="OHUF1F6uUoLwLEs6NgrZ-1">
          <mxGeometry x="240" y="40" width="70" height="150" as="geometry" />
        </mxCell>
        <mxCell id="OHUF1F6uUoLwLEs6NgrZ-6" value="media.codec" style="shape=umlLifeline;perimeter=lifelinePerimeter;whiteSpace=wrap;html=1;container=1;collapsible=0;recursiveResize=0;outlineConnect=0;fontSize=9;" vertex="1" parent="OHUF1F6uUoLwLEs6NgrZ-1">
          <mxGeometry x="320" y="40" width="60" height="150" as="geometry" />
        </mxCell>
        <mxCell id="OHUF1F6uUoLwLEs6NgrZ-7" value="media.swcodec" style="shape=umlLifeline;perimeter=lifelinePerimeter;whiteSpace=wrap;html=1;container=1;collapsible=0;recursiveResize=0;outlineConnect=0;fontSize=9;" vertex="1" parent="OHUF1F6uUoLwLEs6NgrZ-1">
          <mxGeometry x="390" y="40" width="70" height="150" as="geometry" />
        </mxCell>
        <mxCell id="OHUF1F6uUoLwLEs6NgrZ-8" value="com.android.bluetooth" style="shape=umlLifeline;perimeter=lifelinePerimeter;whiteSpace=wrap;html=1;container=1;collapsible=0;recursiveResize=0;outlineConnect=0;fontSize=9;" vertex="1" parent="OHUF1F6uUoLwLEs6NgrZ-1">
          <mxGeometry x="470" y="40" width="100" height="150" as="geometry" />
        </mxCell>
        <mxCell id="OHUF1F6uUoLwLEs6NgrZ-9" value="android.hardware.cas@1.1-service" style="shape=umlLifeline;perimeter=lifelinePerimeter;whiteSpace=wrap;html=1;container=1;collapsible=0;recursiveResize=0;outlineConnect=0;fontSize=9;" vertex="1" parent="OHUF1F6uUoLwLEs6NgrZ-1">
          <mxGeometry x="10" y="230" width="120" height="150" as="geometry" />
        </mxCell>
        <mxCell id="OHUF1F6uUoLwLEs6NgrZ-11" value="android.hardware.cas@1.1-service" style="shape=umlLifeline;perimeter=lifelinePerimeter;whiteSpace=wrap;html=1;container=1;collapsible=0;recursiveResize=0;outlineConnect=0;fontSize=9;" vertex="1" parent="OHUF1F6uUoLwLEs6NgrZ-1">
          <mxGeometry x="135" y="230" width="120" height="150" as="geometry" />
        </mxCell>
      </root>
    </mxGraphModel>
  </diagram>
  <diagram id="ZEbuXkjBLgpZyzTfpevV" name="Page-5">
    <mxGraphModel dx="1038" dy="617" grid="1" gridSize="10" guides="1" tooltips="1" connect="1" arrows="1" fold="1" page="1" pageScale="1" pageWidth="1100" pageHeight="850" math="0" shadow="0">
      <root>
        <mxCell id="nl0CZ4p73LNR8L6i83yZ-0" />
        <mxCell id="nl0CZ4p73LNR8L6i83yZ-1" parent="nl0CZ4p73LNR8L6i83yZ-0" />
        <mxCell id="nl0CZ4p73LNR8L6i83yZ-2" value="ueventd" style="rounded=1;whiteSpace=wrap;html=1;absoluteArcSize=1;arcSize=14;strokeWidth=2;fontSize=9;" vertex="1" parent="nl0CZ4p73LNR8L6i83yZ-1">
          <mxGeometry x="570" y="10" width="70" height="30" as="geometry" />
        </mxCell>
        <mxCell id="nl0CZ4p73LNR8L6i83yZ-3" value="logd" style="rounded=1;whiteSpace=wrap;html=1;absoluteArcSize=1;arcSize=14;strokeWidth=2;fontSize=9;fillColor=#f9f7ed;strokeColor=#36393d;" vertex="1" parent="nl0CZ4p73LNR8L6i83yZ-1">
          <mxGeometry x="570" y="50" width="70" height="30" as="geometry" />
        </mxCell>
        <mxCell id="nl0CZ4p73LNR8L6i83yZ-4" value="servicemanager" style="rounded=1;whiteSpace=wrap;html=1;absoluteArcSize=1;arcSize=14;strokeWidth=2;fontSize=9;" vertex="1" parent="nl0CZ4p73LNR8L6i83yZ-1">
          <mxGeometry x="300" y="90" width="70" height="30" as="geometry" />
        </mxCell>
        <mxCell id="nl0CZ4p73LNR8L6i83yZ-5" value="hwservicemanager" style="rounded=1;whiteSpace=wrap;html=1;absoluteArcSize=1;arcSize=14;strokeWidth=2;fontSize=9;" vertex="1" parent="nl0CZ4p73LNR8L6i83yZ-1">
          <mxGeometry x="300" y="50" width="80" height="30" as="geometry" />
        </mxCell>
        <mxCell id="nl0CZ4p73LNR8L6i83yZ-6" value="vndservicemanager" style="rounded=1;whiteSpace=wrap;html=1;absoluteArcSize=1;arcSize=14;strokeWidth=2;fontSize=9;" vertex="1" parent="nl0CZ4p73LNR8L6i83yZ-1">
          <mxGeometry x="390" y="50" width="80" height="30" as="geometry" />
        </mxCell>
        <mxCell id="nl0CZ4p73LNR8L6i83yZ-7" value="vold" style="rounded=1;whiteSpace=wrap;html=1;absoluteArcSize=1;arcSize=14;strokeWidth=2;fontSize=9;fillColor=#ffe6cc;strokeColor=#d79b00;" vertex="1" parent="nl0CZ4p73LNR8L6i83yZ-1">
          <mxGeometry x="730" y="510" width="80" height="30" as="geometry" />
        </mxCell>
        <mxCell id="nl0CZ4p73LNR8L6i83yZ-9" value="android.hardware.boot@1.0-service" style="rounded=1;whiteSpace=wrap;html=1;absoluteArcSize=1;arcSize=14;strokeWidth=2;fontSize=9;fillColor=#e1d5e7;strokeColor=#9673a6;" vertex="1" parent="nl0CZ4p73LNR8L6i83yZ-1">
          <mxGeometry x="890" y="90" width="160" height="30" as="geometry" />
        </mxCell>
        <mxCell id="nl0CZ4p73LNR8L6i83yZ-11" value="apexd" style="rounded=1;whiteSpace=wrap;html=1;absoluteArcSize=1;arcSize=14;strokeWidth=2;fontSize=9;" vertex="1" parent="nl0CZ4p73LNR8L6i83yZ-1">
          <mxGeometry x="650" y="10" width="80" height="30" as="geometry" />
        </mxCell>
        <mxCell id="nl0CZ4p73LNR8L6i83yZ-12" value="hwcbinder" style="rounded=1;whiteSpace=wrap;html=1;absoluteArcSize=1;arcSize=14;strokeWidth=2;fontSize=9;" vertex="1" parent="nl0CZ4p73LNR8L6i83yZ-1">
          <mxGeometry x="740" y="10" width="80" height="30" as="geometry" />
        </mxCell>
        <mxCell id="nl0CZ4p73LNR8L6i83yZ-13" value="netd" style="rounded=1;whiteSpace=wrap;html=1;absoluteArcSize=1;arcSize=14;strokeWidth=2;fontSize=9;fillColor=#dae8fc;strokeColor=#6c8ebf;" vertex="1" parent="nl0CZ4p73LNR8L6i83yZ-1">
          <mxGeometry x="50" y="200" width="80" height="30" as="geometry" />
        </mxCell>
        <mxCell id="nl0CZ4p73LNR8L6i83yZ-14" value="zygote" style="rounded=1;whiteSpace=wrap;html=1;absoluteArcSize=1;arcSize=14;strokeWidth=2;fontSize=9;" vertex="1" parent="nl0CZ4p73LNR8L6i83yZ-1">
          <mxGeometry x="740" y="50" width="80" height="30" as="geometry" />
        </mxCell>
        <mxCell id="nl0CZ4p73LNR8L6i83yZ-15" value="android.hidl.allocator@1.0-service" style="rounded=1;whiteSpace=wrap;html=1;absoluteArcSize=1;arcSize=14;strokeWidth=2;fontSize=9;fillColor=#f8cecc;strokeColor=#b85450;" vertex="1" parent="nl0CZ4p73LNR8L6i83yZ-1">
          <mxGeometry x="390" y="425" width="160" height="30" as="geometry" />
        </mxCell>
        <mxCell id="nl0CZ4p73LNR8L6i83yZ-16" value="android.system.suspend@1.0-service" style="rounded=1;whiteSpace=wrap;html=1;absoluteArcSize=1;arcSize=14;strokeWidth=2;fontSize=9;fillColor=#e1d5e7;strokeColor=#9673a6;" vertex="1" parent="nl0CZ4p73LNR8L6i83yZ-1">
          <mxGeometry x="890" y="130" width="160" height="30" as="geometry" />
        </mxCell>
        <mxCell id="nl0CZ4p73LNR8L6i83yZ-17" value="android.hardware.audio@2.0-service" style="rounded=1;whiteSpace=wrap;html=1;absoluteArcSize=1;arcSize=14;strokeWidth=2;fontSize=9;fillColor=#f8cecc;strokeColor=#b85450;" vertex="1" parent="nl0CZ4p73LNR8L6i83yZ-1">
          <mxGeometry x="40" y="500" width="160" height="30" as="geometry" />
        </mxCell>
        <mxCell id="nl0CZ4p73LNR8L6i83yZ-18" value="android.hardware.bluetooth@1.0-service" style="rounded=1;whiteSpace=wrap;html=1;absoluteArcSize=1;arcSize=14;strokeWidth=2;fontSize=9;fillColor=#f5f5f5;strokeColor=#666666;fontColor=#333333;" vertex="1" parent="nl0CZ4p73LNR8L6i83yZ-1">
          <mxGeometry x="30" y="600" width="160" height="30" as="geometry" />
        </mxCell>
        <mxCell id="nl0CZ4p73LNR8L6i83yZ-19" value="android.hardware.camera.provider@2.4-external-service" style="rounded=1;whiteSpace=wrap;html=1;absoluteArcSize=1;arcSize=14;strokeWidth=2;fontSize=9;fillColor=#f8cecc;strokeColor=#b85450;" vertex="1" parent="nl0CZ4p73LNR8L6i83yZ-1">
          <mxGeometry x="390" y="390" width="160" height="30" as="geometry" />
        </mxCell>
        <mxCell id="nl0CZ4p73LNR8L6i83yZ-20" value="android.hardware.cas@1.1-service" style="rounded=1;whiteSpace=wrap;html=1;absoluteArcSize=1;arcSize=14;strokeWidth=2;fontSize=9;fillColor=#f8cecc;strokeColor=#b85450;" vertex="1" parent="nl0CZ4p73LNR8L6i83yZ-1">
          <mxGeometry x="390" y="350" width="160" height="30" as="geometry" />
        </mxCell>
        <mxCell id="nl0CZ4p73LNR8L6i83yZ-21" value="android.hardware.configstore@1.1-service" style="rounded=1;whiteSpace=wrap;html=1;absoluteArcSize=1;arcSize=14;strokeWidth=2;fontSize=9;" vertex="1" parent="nl0CZ4p73LNR8L6i83yZ-1">
          <mxGeometry x="560" y="170" width="160" height="30" as="geometry" />
        </mxCell>
        <mxCell id="nl0CZ4p73LNR8L6i83yZ-22" value="android.hardware.drm@1.1-service.playready" style="rounded=1;whiteSpace=wrap;html=1;absoluteArcSize=1;arcSize=14;strokeWidth=2;fontSize=9;fillColor=#d5e8d4;strokeColor=#82b366;" vertex="1" parent="nl0CZ4p73LNR8L6i83yZ-1">
          <mxGeometry x="390" y="260" width="160" height="30" as="geometry" />
        </mxCell>
        <mxCell id="nl0CZ4p73LNR8L6i83yZ-23" value="android.hardware.gatekeeper@1.0-service" style="rounded=1;whiteSpace=wrap;html=1;absoluteArcSize=1;arcSize=14;strokeWidth=2;fontSize=9;" vertex="1" parent="nl0CZ4p73LNR8L6i83yZ-1">
          <mxGeometry x="730" y="220" width="160" height="30" as="geometry" />
        </mxCell>
        <mxCell id="nl0CZ4p73LNR8L6i83yZ-24" value="android.hardware.graphics.allocator@2.0-service" style="rounded=1;whiteSpace=wrap;html=1;absoluteArcSize=1;arcSize=14;strokeWidth=2;fontSize=9;fillColor=#f8cecc;strokeColor=#b85450;" vertex="1" parent="nl0CZ4p73LNR8L6i83yZ-1">
          <mxGeometry x="390" y="460" width="160" height="30" as="geometry" />
        </mxCell>
        <mxCell id="nl0CZ4p73LNR8L6i83yZ-25" value="android.hardware.graphics.composer@2.1-service" style="rounded=1;whiteSpace=wrap;html=1;absoluteArcSize=1;arcSize=14;strokeWidth=2;fontSize=9;fillColor=#f8cecc;strokeColor=#b85450;" vertex="1" parent="nl0CZ4p73LNR8L6i83yZ-1">
          <mxGeometry x="40" y="425" width="160" height="30" as="geometry" />
        </mxCell>
        <mxCell id="nl0CZ4p73LNR8L6i83yZ-26" value="android.hardware.health@2.0-service.vendor" style="rounded=1;whiteSpace=wrap;html=1;absoluteArcSize=1;arcSize=14;strokeWidth=2;fontSize=9;" vertex="1" parent="nl0CZ4p73LNR8L6i83yZ-1">
          <mxGeometry x="60" y="710" width="160" height="30" as="geometry" />
        </mxCell>
        <mxCell id="nl0CZ4p73LNR8L6i83yZ-27" value="android.hardware.light@2.0-service" style="rounded=1;whiteSpace=wrap;html=1;absoluteArcSize=1;arcSize=14;strokeWidth=2;fontSize=9;" vertex="1" parent="nl0CZ4p73LNR8L6i83yZ-1">
          <mxGeometry x="560" y="330" width="160" height="30" as="geometry" />
        </mxCell>
        <mxCell id="nl0CZ4p73LNR8L6i83yZ-28" value="android.hardware.memtrack@1.0-service" style="rounded=1;whiteSpace=wrap;html=1;absoluteArcSize=1;arcSize=14;strokeWidth=2;fontSize=9;fillColor=#ffe6cc;strokeColor=#d79b00;" vertex="1" parent="nl0CZ4p73LNR8L6i83yZ-1">
          <mxGeometry x="730" y="425" width="160" height="30" as="geometry" />
        </mxCell>
        <mxCell id="nl0CZ4p73LNR8L6i83yZ-29" value="android.hardware.power@1.0-service" style="rounded=1;whiteSpace=wrap;html=1;absoluteArcSize=1;arcSize=14;strokeWidth=2;fontSize=9;" vertex="1" parent="nl0CZ4p73LNR8L6i83yZ-1">
          <mxGeometry x="400" y="750" width="160" height="30" as="geometry" />
        </mxCell>
        <mxCell id="nl0CZ4p73LNR8L6i83yZ-30" value="android.hardware.thermal@1.0-service" style="rounded=1;whiteSpace=wrap;html=1;absoluteArcSize=1;arcSize=14;strokeWidth=2;fontSize=9;" vertex="1" parent="nl0CZ4p73LNR8L6i83yZ-1">
          <mxGeometry x="400" y="710" width="160" height="30" as="geometry" />
        </mxCell>
        <mxCell id="nl0CZ4p73LNR8L6i83yZ-31" value="android.hardware.wifi@1.0-vendor" style="rounded=1;whiteSpace=wrap;html=1;absoluteArcSize=1;arcSize=14;strokeWidth=2;fontSize=9;fillColor=#dae8fc;strokeColor=#6c8ebf;" vertex="1" parent="nl0CZ4p73LNR8L6i83yZ-1">
          <mxGeometry x="50" y="240" width="160" height="30" as="geometry" />
        </mxCell>
        <mxCell id="nl0CZ4p73LNR8L6i83yZ-32" value="ashmemd" style="rounded=1;whiteSpace=wrap;html=1;absoluteArcSize=1;arcSize=14;strokeWidth=2;fontSize=9;fillColor=#ffe6cc;strokeColor=#d79b00;" vertex="1" parent="nl0CZ4p73LNR8L6i83yZ-1">
          <mxGeometry x="730" y="470" width="160" height="30" as="geometry" />
        </mxCell>
        <mxCell id="nl0CZ4p73LNR8L6i83yZ-33" value="audioserver" style="rounded=1;whiteSpace=wrap;html=1;absoluteArcSize=1;arcSize=14;strokeWidth=2;fontSize=9;fillColor=#f8cecc;strokeColor=#b85450;" vertex="1" parent="nl0CZ4p73LNR8L6i83yZ-1">
          <mxGeometry x="220" y="310" width="160" height="30" as="geometry" />
        </mxCell>
        <mxCell id="nl0CZ4p73LNR8L6i83yZ-34" value="gpuservice" style="rounded=1;whiteSpace=wrap;html=1;absoluteArcSize=1;arcSize=14;strokeWidth=2;fontSize=9;fillColor=#f8cecc;strokeColor=#b85450;" vertex="1" parent="nl0CZ4p73LNR8L6i83yZ-1">
          <mxGeometry x="220" y="350" width="160" height="30" as="geometry" />
        </mxCell>
        <mxCell id="nl0CZ4p73LNR8L6i83yZ-35" value="lmkd" style="rounded=1;whiteSpace=wrap;html=1;absoluteArcSize=1;arcSize=14;strokeWidth=2;fontSize=9;fillColor=#ffe6cc;strokeColor=#d79b00;" vertex="1" parent="nl0CZ4p73LNR8L6i83yZ-1">
          <mxGeometry x="730" y="340" width="160" height="30" as="geometry" />
        </mxCell>
        <mxCell id="nl0CZ4p73LNR8L6i83yZ-36" value="surfaceflinger" style="rounded=1;whiteSpace=wrap;html=1;absoluteArcSize=1;arcSize=14;strokeWidth=2;fontSize=9;fillColor=#f8cecc;strokeColor=#b85450;" vertex="1" parent="nl0CZ4p73LNR8L6i83yZ-1">
          <mxGeometry x="40" y="460" width="160" height="30" as="geometry" />
        </mxCell>
        <mxCell id="nl0CZ4p73LNR8L6i83yZ-37" value="system_server" style="rounded=1;whiteSpace=wrap;html=1;absoluteArcSize=1;arcSize=14;strokeWidth=2;fontSize=9;" vertex="1" parent="nl0CZ4p73LNR8L6i83yZ-1">
          <mxGeometry x="830" y="50" width="80" height="30" as="geometry" />
        </mxCell>
        <mxCell id="nl0CZ4p73LNR8L6i83yZ-38" value="adbd" style="rounded=1;whiteSpace=wrap;html=1;absoluteArcSize=1;arcSize=14;strokeWidth=2;fontSize=9;fillColor=#f9f7ed;strokeColor=#36393d;" vertex="1" parent="nl0CZ4p73LNR8L6i83yZ-1">
          <mxGeometry x="570" y="90" width="70" height="30" as="geometry" />
        </mxCell>
        <mxCell id="nl0CZ4p73LNR8L6i83yZ-39" value="cameraserver" style="rounded=1;whiteSpace=wrap;html=1;absoluteArcSize=1;arcSize=14;strokeWidth=2;fontSize=9;fillColor=#f8cecc;strokeColor=#b85450;" vertex="1" parent="nl0CZ4p73LNR8L6i83yZ-1">
          <mxGeometry x="390" y="310" width="160" height="30" as="geometry" />
        </mxCell>
        <mxCell id="nl0CZ4p73LNR8L6i83yZ-40" value="cwmpd" style="rounded=1;whiteSpace=wrap;html=1;absoluteArcSize=1;arcSize=14;strokeWidth=2;fontSize=9;" vertex="1" parent="nl0CZ4p73LNR8L6i83yZ-1">
          <mxGeometry x="560" y="210" width="160" height="30" as="geometry" />
        </mxCell>
        <mxCell id="nl0CZ4p73LNR8L6i83yZ-41" value="drmserver" style="rounded=1;whiteSpace=wrap;html=1;absoluteArcSize=1;arcSize=14;strokeWidth=2;fontSize=9;fillColor=#d5e8d4;strokeColor=#82b366;" vertex="1" parent="nl0CZ4p73LNR8L6i83yZ-1">
          <mxGeometry x="390" y="140" width="160" height="30" as="geometry" />
        </mxCell>
        <mxCell id="nl0CZ4p73LNR8L6i83yZ-43" value="idmap2d" style="rounded=1;whiteSpace=wrap;html=1;absoluteArcSize=1;arcSize=14;strokeWidth=2;fontSize=9;" vertex="1" parent="nl0CZ4p73LNR8L6i83yZ-1">
          <mxGeometry x="560" y="250" width="160" height="30" as="geometry" />
        </mxCell>
        <mxCell id="nl0CZ4p73LNR8L6i83yZ-44" value="incidentd" style="rounded=1;whiteSpace=wrap;html=1;absoluteArcSize=1;arcSize=14;strokeWidth=2;fontSize=9;" vertex="1" parent="nl0CZ4p73LNR8L6i83yZ-1">
          <mxGeometry x="560" y="290" width="160" height="30" as="geometry" />
        </mxCell>
        <mxCell id="nl0CZ4p73LNR8L6i83yZ-45" value="installd" style="rounded=1;whiteSpace=wrap;html=1;absoluteArcSize=1;arcSize=14;strokeWidth=2;fontSize=9;" vertex="1" parent="nl0CZ4p73LNR8L6i83yZ-1">
          <mxGeometry x="230" y="710" width="160" height="30" as="geometry" />
        </mxCell>
        <mxCell id="nl0CZ4p73LNR8L6i83yZ-46" value="keystore" style="rounded=1;whiteSpace=wrap;html=1;absoluteArcSize=1;arcSize=14;strokeWidth=2;fontSize=9;" vertex="1" parent="nl0CZ4p73LNR8L6i83yZ-1">
          <mxGeometry x="230" y="750" width="160" height="30" as="geometry" />
        </mxCell>
        <mxCell id="nl0CZ4p73LNR8L6i83yZ-47" value="mediadrmserver" style="rounded=1;whiteSpace=wrap;html=1;absoluteArcSize=1;arcSize=14;strokeWidth=2;fontSize=9;fillColor=#f8cecc;strokeColor=#b85450;" vertex="1" parent="nl0CZ4p73LNR8L6i83yZ-1">
          <mxGeometry x="220" y="390" width="160" height="30" as="geometry" />
        </mxCell>
        <mxCell id="nl0CZ4p73LNR8L6i83yZ-48" value="media.extractor" style="rounded=1;whiteSpace=wrap;html=1;absoluteArcSize=1;arcSize=14;strokeWidth=2;fontSize=9;fillColor=#f8cecc;strokeColor=#b85450;" vertex="1" parent="nl0CZ4p73LNR8L6i83yZ-1">
          <mxGeometry x="220" y="500" width="160" height="30" as="geometry" />
        </mxCell>
        <mxCell id="nl0CZ4p73LNR8L6i83yZ-49" value="media.metrics" style="rounded=1;whiteSpace=wrap;html=1;absoluteArcSize=1;arcSize=14;strokeWidth=2;fontSize=9;fillColor=#f8cecc;strokeColor=#b85450;" vertex="1" parent="nl0CZ4p73LNR8L6i83yZ-1">
          <mxGeometry x="220" y="460" width="160" height="30" as="geometry" />
        </mxCell>
        <mxCell id="nl0CZ4p73LNR8L6i83yZ-50" value="mediaserver" style="rounded=1;whiteSpace=wrap;html=1;absoluteArcSize=1;arcSize=14;strokeWidth=2;fontSize=9;fillColor=#f8cecc;strokeColor=#b85450;" vertex="1" parent="nl0CZ4p73LNR8L6i83yZ-1">
          <mxGeometry x="220" y="425" width="160" height="30" as="geometry" />
        </mxCell>
        <mxCell id="nl0CZ4p73LNR8L6i83yZ-51" value="statsd" style="rounded=1;whiteSpace=wrap;html=1;absoluteArcSize=1;arcSize=14;strokeWidth=2;fontSize=9;" vertex="1" parent="nl0CZ4p73LNR8L6i83yZ-1">
          <mxGeometry x="40" y="380" width="160" height="30" as="geometry" />
        </mxCell>
        <mxCell id="nl0CZ4p73LNR8L6i83yZ-52" value="storaged" style="rounded=1;whiteSpace=wrap;html=1;absoluteArcSize=1;arcSize=14;strokeWidth=2;fontSize=9;fillColor=#ffe6cc;strokeColor=#d79b00;" vertex="1" parent="nl0CZ4p73LNR8L6i83yZ-1">
          <mxGeometry x="730" y="380" width="160" height="30" as="geometry" />
        </mxCell>
        <mxCell id="nl0CZ4p73LNR8L6i83yZ-53" value="wificond" style="rounded=1;whiteSpace=wrap;html=1;absoluteArcSize=1;arcSize=14;strokeWidth=2;fontSize=9;fillColor=#dae8fc;strokeColor=#6c8ebf;" vertex="1" parent="nl0CZ4p73LNR8L6i83yZ-1">
          <mxGeometry x="140" y="200" width="160" height="30" as="geometry" />
        </mxCell>
        <mxCell id="nl0CZ4p73LNR8L6i83yZ-54" value="media.codec" style="rounded=1;whiteSpace=wrap;html=1;absoluteArcSize=1;arcSize=14;strokeWidth=2;fontSize=9;fillColor=#f8cecc;strokeColor=#b85450;" vertex="1" parent="nl0CZ4p73LNR8L6i83yZ-1">
          <mxGeometry x="210" y="650" width="160" height="30" as="geometry" />
        </mxCell>
        <mxCell id="nl0CZ4p73LNR8L6i83yZ-55" value="media.swcodec" style="rounded=1;whiteSpace=wrap;html=1;absoluteArcSize=1;arcSize=14;strokeWidth=2;fontSize=9;fillColor=#f8cecc;strokeColor=#b85450;" vertex="1" parent="nl0CZ4p73LNR8L6i83yZ-1">
          <mxGeometry x="40" y="650" width="160" height="30" as="geometry" />
        </mxCell>
        <mxCell id="nl0CZ4p73LNR8L6i83yZ-56" value="gatekeeperd" style="rounded=1;whiteSpace=wrap;html=1;absoluteArcSize=1;arcSize=14;strokeWidth=2;fontSize=9;" vertex="1" parent="nl0CZ4p73LNR8L6i83yZ-1">
          <mxGeometry x="40" y="340" width="160" height="30" as="geometry" />
        </mxCell>
        <mxCell id="nl0CZ4p73LNR8L6i83yZ-57" value="tombstoned" style="rounded=1;whiteSpace=wrap;html=1;absoluteArcSize=1;arcSize=14;strokeWidth=2;fontSize=9;fillColor=#f9f7ed;strokeColor=#36393d;" vertex="1" parent="nl0CZ4p73LNR8L6i83yZ-1">
          <mxGeometry x="650" y="50" width="80" height="30" as="geometry" />
        </mxCell>
        <mxCell id="nl0CZ4p73LNR8L6i83yZ-58" value="update_engine" style="rounded=1;whiteSpace=wrap;html=1;absoluteArcSize=1;arcSize=14;strokeWidth=2;fontSize=9;" vertex="1" parent="nl0CZ4p73LNR8L6i83yZ-1">
          <mxGeometry x="40" y="300" width="160" height="30" as="geometry" />
        </mxCell>
        <mxCell id="nl0CZ4p73LNR8L6i83yZ-59" value="iptables-restore" style="rounded=1;whiteSpace=wrap;html=1;absoluteArcSize=1;arcSize=14;strokeWidth=2;fontSize=9;fillColor=#dae8fc;strokeColor=#6c8ebf;" vertex="1" parent="nl0CZ4p73LNR8L6i83yZ-1">
          <mxGeometry x="50" y="25" width="160" height="30" as="geometry" />
        </mxCell>
        <mxCell id="nl0CZ4p73LNR8L6i83yZ-60" value="ip6tables-restore" style="rounded=1;whiteSpace=wrap;html=1;absoluteArcSize=1;arcSize=14;strokeWidth=2;fontSize=9;fillColor=#dae8fc;strokeColor=#6c8ebf;" vertex="1" parent="nl0CZ4p73LNR8L6i83yZ-1">
          <mxGeometry x="50" y="65" width="160" height="30" as="geometry" />
        </mxCell>
        <mxCell id="nl0CZ4p73LNR8L6i83yZ-61" value="wpa_supplicant" style="rounded=1;whiteSpace=wrap;html=1;absoluteArcSize=1;arcSize=14;strokeWidth=2;fontSize=9;fillColor=#dae8fc;strokeColor=#6c8ebf;" vertex="1" parent="nl0CZ4p73LNR8L6i83yZ-1">
          <mxGeometry x="50" y="110" width="160" height="30" as="geometry" />
        </mxCell>
        <mxCell id="nl0CZ4p73LNR8L6i83yZ-62" value="com.android.bluetooth" style="rounded=1;whiteSpace=wrap;html=1;absoluteArcSize=1;arcSize=14;strokeWidth=2;fontSize=9;fillColor=#dae8fc;strokeColor=#6c8ebf;" vertex="1" parent="nl0CZ4p73LNR8L6i83yZ-1">
          <mxGeometry x="50" y="155" width="160" height="30" as="geometry" />
        </mxCell>
        <mxCell id="nl0CZ4p73LNR8L6i83yZ-64" value="com.android.systemui" style="rounded=1;whiteSpace=wrap;html=1;absoluteArcSize=1;arcSize=14;strokeWidth=2;fontSize=9;" vertex="1" parent="nl0CZ4p73LNR8L6i83yZ-1">
          <mxGeometry x="220" y="590" width="160" height="30" as="geometry" />
        </mxCell>
        <mxCell id="nl0CZ4p73LNR8L6i83yZ-65" value="com.android.bluetooth" style="rounded=1;whiteSpace=wrap;html=1;absoluteArcSize=1;arcSize=14;strokeWidth=2;fontSize=9;fillColor=#f5f5f5;strokeColor=#666666;fontColor=#333333;" vertex="1" parent="nl0CZ4p73LNR8L6i83yZ-1">
          <mxGeometry x="30" y="560" width="160" height="30" as="geometry" />
        </mxCell>
        <mxCell id="nl0CZ4p73LNR8L6i83yZ-66" value="webview_zygote" style="rounded=1;whiteSpace=wrap;html=1;absoluteArcSize=1;arcSize=14;strokeWidth=2;fontSize=9;" vertex="1" parent="nl0CZ4p73LNR8L6i83yZ-1">
          <mxGeometry x="660" y="90" width="160" height="30" as="geometry" />
        </mxCell>
        <mxCell id="nl0CZ4p73LNR8L6i83yZ-67" value="mdnsd" style="rounded=1;whiteSpace=wrap;html=1;absoluteArcSize=1;arcSize=14;strokeWidth=2;fontSize=9;fillColor=#dae8fc;strokeColor=#6c8ebf;" vertex="1" parent="nl0CZ4p73LNR8L6i83yZ-1">
          <mxGeometry x="220" y="240" width="80" height="30" as="geometry" />
        </mxCell>
        <mxCell id="nl0CZ4p73LNR8L6i83yZ-68" value="com.google.process.gservices" style="rounded=1;whiteSpace=wrap;html=1;absoluteArcSize=1;arcSize=14;strokeWidth=2;fontSize=9;" vertex="1" parent="nl0CZ4p73LNR8L6i83yZ-1">
          <mxGeometry x="560" y="550" width="160" height="30" as="geometry" />
        </mxCell>
        <mxCell id="nl0CZ4p73LNR8L6i83yZ-69" value="com.google.android.katniss:interactor" style="rounded=1;whiteSpace=wrap;html=1;absoluteArcSize=1;arcSize=14;strokeWidth=2;fontSize=9;" vertex="1" parent="nl0CZ4p73LNR8L6i83yZ-1">
          <mxGeometry x="730" y="550" width="160" height="30" as="geometry" />
        </mxCell>
        <mxCell id="nl0CZ4p73LNR8L6i83yZ-70" value="com.android.se" style="rounded=1;whiteSpace=wrap;html=1;absoluteArcSize=1;arcSize=14;strokeWidth=2;fontSize=9;" vertex="1" parent="nl0CZ4p73LNR8L6i83yZ-1">
          <mxGeometry x="400" y="790" width="160" height="30" as="geometry" />
        </mxCell>
        <mxCell id="nl0CZ4p73LNR8L6i83yZ-71" value="com.google.android.katniss:search" style="rounded=1;whiteSpace=wrap;html=1;absoluteArcSize=1;arcSize=14;strokeWidth=2;fontSize=9;" vertex="1" parent="nl0CZ4p73LNR8L6i83yZ-1">
          <mxGeometry x="560" y="590" width="160" height="30" as="geometry" />
        </mxCell>
        <mxCell id="nl0CZ4p73LNR8L6i83yZ-72" value="com.google.android.apps.mediashell" style="rounded=1;whiteSpace=wrap;html=1;absoluteArcSize=1;arcSize=14;strokeWidth=2;fontSize=9;" vertex="1" parent="nl0CZ4p73LNR8L6i83yZ-1">
          <mxGeometry x="390" y="590" width="160" height="30" as="geometry" />
        </mxCell>
        <mxCell id="nl0CZ4p73LNR8L6i83yZ-73" value="android.hardware.drm@1.2-service-lazy.clearkey" style="rounded=1;whiteSpace=wrap;html=1;absoluteArcSize=1;arcSize=14;strokeWidth=2;fontSize=9;fillColor=#d5e8d4;strokeColor=#82b366;" vertex="1" parent="nl0CZ4p73LNR8L6i83yZ-1">
          <mxGeometry x="390" y="220" width="160" height="30" as="geometry" />
        </mxCell>
        <mxCell id="nl0CZ4p73LNR8L6i83yZ-75" value="android.hardware.drm@1.2-service-lazy.widevine" style="rounded=1;whiteSpace=wrap;html=1;absoluteArcSize=1;arcSize=14;strokeWidth=2;fontSize=9;fillColor=#d5e8d4;strokeColor=#82b366;" vertex="1" parent="nl0CZ4p73LNR8L6i83yZ-1">
          <mxGeometry x="390" y="180" width="160" height="30" as="geometry" />
        </mxCell>
      </root>
    </mxGraphModel>
  </diagram>
</mxfile>
